<svg xmlns="http://www.w3.org/2000/svg" viewBox="0 0 9.44431 5"><defs><style>.cls-1{fill:#1f1a17;}.cls-2{fill:#d82727;}</style></defs><title>Icons - All.outline.2</title><path id="_Path_" class="cls-1" d="M2.54 1.538L0 1.634l2.065.696.07-.44.405-.352z"/><path id="_Path_2" class="cls-1" d="M1.877 2.546l-1.69.277 1.182.708a1.402 1.402 0 0 1 .126-.56 1.404 1.404 0 0 1 .38-.424z"/><path class="cls-2" d="M8.422 2.35a1.337 1.337 0 0 0-.608-.007L7.17.283 7.165.268A.137.137 0 0 0 7.15.246.087.087 0 0 0 7.136.23a.09.09 0 0 0-.018-.015.123.123 0 0 0-.023-.01L7.08.197 6.3.004a.126.126 0 1 0-.06.244l.714.177.173.577.134.426.314.99a1.343 1.343 0 1 0 .848-.068zm.34 1.47a.683.683 0 1 1-.5-.827.683.683 0 0 1 .5.826zM7.226 1.322a3.342 3.342 0 0 0-.62-.08 2.105 2.105 0 0 0-.284.012 2.323 2.323 0 0 0-1.153.672.877.877 0 0 1-1.098.07l-.004-.004a1.82 1.82 0 0 0-.905-.294 1.123 1.123 0 0 0-.167.013.123.123 0 0 0-.097-.05h-.273l-.102.025a.123.123 0 0 0-.055.1v.187a1.658 1.658 0 0 0-.178.195.124.124 0 0 0-.043.094.122.122 0 0 0 .127.127h.02c0-.002.032-.006.085-.01a1.345 1.345 0 1 0 1.76 1.278v-.03l.15.274a1.05 1.05 0 0 0 .56.676h.766a1.05 1.05 0 0 0 .56-.677l1.11-2.18zM2.898 4.338a.683.683 0 1 1 .684-.683.683.683 0 0 1-.684.683z"/></svg>